<!--?xml version="1.0" encoding="utf-8" standalone="yes"?-->

<svg xmlns="http://www.w3.org/2000/svg" xmlns:xlink="http://www.w3.org/1999/xlink" xmlns:dc="http://purl.org/dc/elements/1.1/" xmlns:cc="http://web.resource.org/cc/" xmlns:rdf="http://www.w3.org/1999/02/22-rdf-syntax-ns#" xmlns:sodipodi="http://sodipodi.sourceforge.net/DTD/sodipodi-0.dtd" xmlns:inkscape="http://www.inkscape.org/namespaces/inkscape" version="1.1" baseProfile="full" width="275px" height="450px" viewBox="0 0 275 450" preserveAspectRatio="xMidYMid meet" id="svg_document" style="zoom: 1;"><title id="floor2_diagram">floor2_diagram</title><defs id="svg_document_defs"></defs><g id="main_group"></g><path stroke="#000000" id="polyline2" stroke-width="3px" fill="none" transform="" d="M10,30L130,30L130,80L260,80L260,390L100,390L100,430L10,430L10,30" class="WnZbfRpv_0"></path><path stroke="#000000" id="left_bedroom_window" stroke-width="3px" fill="#ffffff" transform="" d="M60,30A10,10 0,1,1 80,30A10,10 0,1,1 60,30" class="WnZbfRpv_1"></path><path stroke="#000000" id="right_bedroom_window" stroke-width="3px" fill="#ffffff" transform="" d="M185,79A10,10 0,1,1 205,79A10,10 0,1,1 185,79" class="WnZbfRpv_2"></path><path stroke="#000000" id="bathroom_window" stroke-width="3px" fill="#ffffff" transform="" d="M250,170A10,10 0,1,1 270,170A10,10 0,1,1 250,170" class="WnZbfRpv_3"></path><path stroke="#000000" id="living_room_window" stroke-width="3px" fill="#ffffff" transform="" d="M250,300A10,10 0,1,1 270,300A10,10 0,1,1 250,300" class="WnZbfRpv_4"></path><path stroke="#000000" id="main_bedroom_window" stroke-width="3px" fill="#ffffff" transform="" d="M171,390A10,10 0,1,1 191,390A10,10 0,1,1 171,390" class="WnZbfRpv_5"></path><style data-made-with="vivus-instant">.WnZbfRpv_0{stroke-dasharray:1300 1302;stroke-dashoffset:1301;animation:WnZbfRpv_draw 666ms linear 0ms forwards;}.WnZbfRpv_1{stroke-dasharray:63 65;stroke-dashoffset:64;animation:WnZbfRpv_draw 666ms linear 66ms forwards;}.WnZbfRpv_2{stroke-dasharray:63 65;stroke-dashoffset:64;animation:WnZbfRpv_draw 666ms linear 133ms forwards;}.WnZbfRpv_3{stroke-dasharray:63 65;stroke-dashoffset:64;animation:WnZbfRpv_draw 666ms linear 199ms forwards;}.WnZbfRpv_4{stroke-dasharray:63 65;stroke-dashoffset:64;animation:WnZbfRpv_draw 666ms linear 266ms forwards;}.WnZbfRpv_5{stroke-dasharray:63 65;stroke-dashoffset:64;animation:WnZbfRpv_draw 666ms linear 333ms forwards;}@keyframes WnZbfRpv_draw{100%{stroke-dashoffset:0;}}@keyframes WnZbfRpv_fade{0%{stroke-opacity:1;}92.3076923076923%{stroke-opacity:1;}100%{stroke-opacity:0;}}</style></svg>