<!--?xml version="1.0" encoding="utf-8" standalone="yes"?-->

<svg xmlns="http://www.w3.org/2000/svg" xmlns:xlink="http://www.w3.org/1999/xlink" xmlns:dc="http://purl.org/dc/elements/1.1/" xmlns:cc="http://web.resource.org/cc/" xmlns:rdf="http://www.w3.org/1999/02/22-rdf-syntax-ns#" xmlns:sodipodi="http://sodipodi.sourceforge.net/DTD/sodipodi-0.dtd" xmlns:inkscape="http://www.inkscape.org/namespaces/inkscape" height="450px" style="zoom: 1;" cursor="default" id="svg_document" width="275px" baseProfile="full" version="1.1" preserveAspectRatio="xMidYMid meet" viewBox="0 0 275 450"><title id="floor1_diagram">floor1</title><defs id="svg_document_defs"></defs><g id="main_group"></g><path stroke="#000000" id="floor1_shape" stroke-width="3px" fill="none" transform="" d="M10,30L110,30L110,130L260,130L260,430L10,430L10,30" class="Zveaensv_0"></path><path stroke="#000000" id="laundry_bathroom_window" stroke-width="3px" fill="#ffffff" transform="" d="M100,50A10,10 0,1,1 120,50A10,10 0,1,1 100,50" class="Zveaensv_1"></path><path stroke="#000000" transform="" id="laundry_door" stroke-width="3px" fill="#ffffff" d="M100,80A10,10 0,1,1 120,80A10,10 0,1,1 100,80" class="Zveaensv_2"></path><path stroke="#000000" stroke-width="3px" id="laundry_window" fill="#ffffff" transform="" d="M100,110A10,10 0,1,1 120,110A10,10 0,1,1 100,110" class="Zveaensv_3"></path><path stroke="#000000" transform="" stroke-width="3px" id="dinning_room_door" fill="#ffffff" d="M175,130A10,10 0,1,1 195,130A10,10 0,1,1 175,130" class="Zveaensv_4"></path><path stroke="#000000" id="dinning_room_window" stroke-width="3px" fill="#ffffff" transform="" d="M250,190A10,10 0,1,1 270,190A10,10 0,1,1 250,190" class="Zveaensv_5"></path><path stroke="#000000" id="sitting_room_lateral_window" stroke-width="3px" fill="#ffffff" transform="" d="M250,389A10,10 0,1,1 270,389A10,10 0,1,1 250,389" class="Zveaensv_6"></path><path stroke="#000000" id="sitting_room_front_window" stroke-width="3px" fill="#ffffff" transform="" d="M209,427A10,10 0,1,1 229,427A10,10 0,1,1 209,427" class="Zveaensv_7"></path><path stroke="#000000" id="main_door" stroke-width="3px" fill="#ffffff" transform="" d="M47,429A10,10 0,1,1 67,429A10,10 0,1,1 47,429" class="Zveaensv_8"></path><style data-made-with="vivus-instant">.Zveaensv_0{stroke-dasharray:1300 1302;stroke-dashoffset:1301;animation:Zveaensv_draw 666ms linear 0ms forwards;}.Zveaensv_1{stroke-dasharray:63 65;stroke-dashoffset:64;animation:Zveaensv_draw 666ms linear 41ms forwards;}.Zveaensv_2{stroke-dasharray:63 65;stroke-dashoffset:64;animation:Zveaensv_draw 666ms linear 83ms forwards;}.Zveaensv_3{stroke-dasharray:63 65;stroke-dashoffset:64;animation:Zveaensv_draw 666ms linear 125ms forwards;}.Zveaensv_4{stroke-dasharray:63 65;stroke-dashoffset:64;animation:Zveaensv_draw 666ms linear 166ms forwards;}.Zveaensv_5{stroke-dasharray:63 65;stroke-dashoffset:64;animation:Zveaensv_draw 666ms linear 208ms forwards;}.Zveaensv_6{stroke-dasharray:63 65;stroke-dashoffset:64;animation:Zveaensv_draw 666ms linear 250ms forwards;}.Zveaensv_7{stroke-dasharray:63 65;stroke-dashoffset:64;animation:Zveaensv_draw 666ms linear 291ms forwards;}.Zveaensv_8{stroke-dasharray:63 65;stroke-dashoffset:64;animation:Zveaensv_draw 666ms linear 333ms forwards;}@keyframes Zveaensv_draw{100%{stroke-dashoffset:0;}}@keyframes Zveaensv_fade{0%{stroke-opacity:1;}92.3076923076923%{stroke-opacity:1;}100%{stroke-opacity:0;}}</style></svg>